# xmcd
#
# Track frame offsets: 
#        150
#        13551
#        25746
#        42848
#        67852
#        74075
#        91606
#        107228
#        123890
#        143697
#        156330
#        175512
#        193971
#        217804
#        237204
#        263452
#        281481
#        300354
#        312736
#        324567
#
# Disc length: 4523 seconds
#
# Revision: 0
# Processed by: cddbd v1.5.2PL0 Copyright (c) Steve Scherf et al.
# Submitted via: ExactAudioCopy v1.1
#
DISCID=0b11a914
DTITLE=Herman Van Veen - 100 - CD 3
DYEAR=2009
DGENRE=Cabaret
TTITLE0=Geen Baan
TTITLE1=Van Dijk
TTITLE2=Anne
TTITLE3=Joop
TTITLE4=Zo Vrolijk (1998)
TTITLE5=Een Vriend Zien Huilen
TTITLE6=Toveren (1998)
TTITLE7=De Clowns
TTITLE8=Herman Van Veen, Johnny Kraaykamp and Paul Van Vliet - Praatjes
TTITLE9=Wat De Oude Vrouw Bad
TTITLE10=Kusje
TTITLE11=Blauwe Plekken (1998)
TTITLE12=Herman Van Veen and Ernst-Daniël Smid - You Take My Breath Away
TTITLE13=Leugens
TTITLE14=Als Je Komt
TTITLE15=Een Foto (1998)
TTITLE16=Guigui (2003)
TTITLE17=We Komen En We Gaan
TTITLE18=Marieke
TTITLE19=Casablanca
EXTD=
EXTT0=
EXTT1=
EXTT2=
EXTT3=
EXTT4=
EXTT5=
EXTT6=
EXTT7=
EXTT8=
EXTT9=
EXTT10=
EXTT11=
EXTT12=
EXTT13=
EXTT14=
EXTT15=
EXTT16=
EXTT17=
EXTT18=
EXTT19=
PLAYORDER=
